<svg width="50" height="58" viewBox="0 0 50 58" fill="none" xmlns="http://www.w3.org/2000/svg">
<path d="M2.74238 30.2085C3.86098 31.2891 5.07588 32.2736 6.3732 33.151C6.71365 33.3852 7.1633 33.4129 7.53218 33.2225C7.90105 33.0321 8.12481 32.6567 8.1089 32.255C7.80873 25.6381 8.40405 5.19114 26.6436 0.0402921C27 -0.0598982 27.385 0.0297871 27.6539 0.27563C27.9227 0.521473 28.0347 0.886209 27.9477 1.23271C23.2282 20.4107 35.0493 26.2673 40.4215 17.216C40.5952 16.9153 40.9202 16.724 41.2782 16.7117C41.6361 16.6994 41.9746 16.868 42.1701 17.156C46.8645 24.1175 45.6258 30.3464 44.3662 33.5976C44.158 34.1522 44.3283 34.7726 44.7942 35.1567C45.2601 35.5408 45.9247 35.6088 46.4645 35.3277C47.2579 34.9091 47.9883 34.3887 48.6354 33.781C48.7974 33.6326 49.0357 33.5907 49.2419 33.6744C49.4481 33.7581 49.5829 33.9514 49.5848 34.1663V34.1801C49.5898 47.0087 38.9989 57.5321 25.6409 57.9712C12.2829 58.4103 0.966682 48.607 0.0573186 35.8081C-0.0550426 34.2164 -0.0021196 32.618 0.215305 31.0363C0.286862 30.4958 0.672952 30.0416 1.2103 29.8657C1.74766 29.6899 2.34243 29.8232 2.7431 30.2092L2.74238 30.2085Z" fill="#2DCFDA"/>
<path d="M2.76683 30.2856C3.89511 31.3634 5.12052 32.3454 6.42907 33.2205C6.77246 33.454 7.226 33.4817 7.59807 33.2918C7.97014 33.1018 8.19583 32.7274 8.17978 32.3267C7.92627 26.8201 8.30364 11.6983 19.1346 3.86523C18.3234 4.73489 14.3852 8.74632 11.2676 19.5204C10.1811 23.2878 10.3535 30.0973 10.8627 36.7692C11.143 40.4424 2.67194 34.5617 3.05077 38.3422C3.64834 44.2971 13.2878 51.2282 18.8731 53.2178C30.083 57.2106 45.5033 48.0308 43.9692 49.7233C37.3541 57.0252 26.7462 59.8098 17.118 56.7719C7.48984 53.7339 0.749976 45.4755 0.0578145 35.8679C-0.0555188 34.2804 -0.00213794 32.6861 0.217168 31.1085C0.289344 30.5694 0.678774 30.1163 1.22078 29.941C1.76278 29.7656 2.36269 29.8985 2.76683 30.2836V30.2856Z" fill="#2DCFDA"/>
</svg>
