<svg width="60" height="60" viewBox="0 0 60 60" fill="none" xmlns="http://www.w3.org/2000/svg">
<path d="M50.2886 14.7528C50.0855 14.4833 49.8686 14.2246 49.6386 13.9778C49.8699 13.3614 50.0456 12.7255 50.1636 12.0778C50.5119 9.70828 50.2094 7.28866 49.2886 5.07779C49.2886 5.07779 46.4886 4.20279 40.0636 8.52779C37.3359 7.77464 34.5184 7.39616 31.6886 7.40279C28.8507 7.39781 26.0252 7.77624 23.2886 8.52779C16.8636 4.15279 14.0636 5.07779 14.0636 5.07779C13.1538 7.26525 12.8515 9.65778 13.1886 12.0028C13.3072 12.6774 13.4914 13.3389 13.7386 13.9778C13.5136 14.2278 13.2886 14.5028 13.0886 14.7528C11.2231 17.0928 10.2328 20.0106 10.2886 23.0028C10.2827 23.7124 10.3161 24.4218 10.3886 25.1278C11.1886 36.2028 18.5636 38.7778 25.5886 39.5778C24.5943 40.5024 23.9201 41.7195 23.6636 43.0528C23.4312 43.942 23.3219 44.8588 23.3386 45.7778V49.0528C20.5411 49.3028 17.6711 48.8953 16.7811 46.4003C15.8257 44.0122 14.2413 41.9275 12.1961 40.3678C12.0466 40.2869 11.9044 40.1932 11.7711 40.0878C11.5915 39.6158 11.2733 39.2092 10.8584 38.9214C10.4434 38.6336 9.9511 38.4781 9.44611 38.4753H9.43361C8.77273 38.4753 8.13873 38.7369 7.67025 39.2031C7.20177 39.6692 6.93692 40.3019 6.93361 40.9628C6.92611 42.9928 8.95861 44.3053 9.79111 44.7503C10.7637 45.7303 11.5461 46.8823 12.0986 48.1478C13.0086 50.7053 15.6711 54.5928 23.2636 54.0878L23.2686 54.3328L23.2786 55.0028C23.2786 55.6658 23.542 56.3017 24.0108 56.7705C24.4797 57.2394 25.1156 57.5028 25.7786 57.5028H37.5636C38.2266 57.5028 38.8625 57.2394 39.3314 56.7705C39.8002 56.3017 40.0636 55.6658 40.0636 55.0028C40.0636 55.0028 40.0836 47.1028 40.0836 45.7778C40.1002 44.8589 39.9909 43.942 39.7586 43.0528L39.7536 43.0378L39.7636 43.0528C39.7411 42.9653 39.7086 42.8953 39.6836 42.8103C39.405 41.5716 38.7605 40.4454 37.8336 39.5778L37.8636 39.6303L37.8136 39.5803C44.8386 38.7803 52.1636 36.1553 52.9636 25.1303C53.0361 24.4243 53.0695 23.7149 53.0636 23.0053C53.108 20.0191 52.1287 17.1051 50.2886 14.7528Z" fill="url(#paint0_linear_973_31810)"/>
<defs>
<linearGradient id="paint0_linear_973_31810" x1="29.9993" y1="4.99609" x2="29.9993" y2="57.5028" gradientUnits="userSpaceOnUse">
<stop stop-color="#6563FF"/>
<stop offset="1" stop-color="#F31111"/>
</linearGradient>
</defs>
</svg>
